<mxfile host="app.diagrams.net" agent="Mozilla/5.0 (Windows NT 10.0; Win64; x64) AppleWebKit/537.36 (KHTML, like Gecko) Chrome/135.0.0.0 Safari/537.36" version="26.2.14">
  <diagram id="architecture" name="Architecture">
    <mxGraphModel dx="1940" dy="702" grid="1" gridSize="10" guides="1" tooltips="1" connect="1" arrows="1" fold="1" page="1" pageScale="1" pageWidth="827" pageHeight="1169" math="0" shadow="0">
      <root>
        <mxCell id="0" />
        <mxCell id="1" parent="0" />
        <mxCell id="2" value="React App (Dashboard)" style="rounded=1;fillColor=#dae8fc;fontSize=12;" parent="1" vertex="1">
          <mxGeometry x="-220" y="140" width="160" height="60" as="geometry" />
        </mxCell>
        <mxCell id="3" value="CloudFront CDN" style="rounded=1;fillColor=#f8cecc;fontSize=12;" parent="1" vertex="1">
          <mxGeometry x="-10" y="20" width="160" height="60" as="geometry" />
        </mxCell>
        <mxCell id="4" value="S3 Bucket (build/)" style="rounded=1;fillColor=#d5e8d4;fontSize=12;" parent="1" vertex="1">
          <mxGeometry x="220" y="20" width="160" height="60" as="geometry" />
        </mxCell>
        <mxCell id="5" value="API Gateway" style="rounded=1;fillColor=#ffe6cc;fontSize=12;" parent="1" vertex="1">
          <mxGeometry x="10" y="260" width="160" height="60" as="geometry" />
        </mxCell>
        <mxCell id="6" value="AWS Lambda\n(customer_usage_lambda)" style="rounded=1;fillColor=#fff2cc;fontSize=12;" parent="1" vertex="1">
          <mxGeometry x="270" y="210" width="160" height="60" as="geometry" />
        </mxCell>
        <mxCell id="7" value="DynamoDB Tables\n- Customer_usage\n- Customer_alerts" style="rounded=1;fillColor=#e1d5e7;fontSize=12;" parent="1" vertex="1">
          <mxGeometry x="620" y="50" width="160" height="60" as="geometry" />
        </mxCell>
        <mxCell id="8" value="SNS Topic\n(EnergyThresholdAlerts)" style="rounded=1;fillColor=#f5f5f5;fontSize=12;" parent="1" vertex="1">
          <mxGeometry x="580" y="310" width="160" height="60" as="geometry" />
        </mxCell>
        <mxCell id="9" style="edgeStyle=orthogonalEdgeStyle;rounded=0;exitX=1;exitY=0.5;entryX=0;entryY=0.5;" parent="1" source="2" target="3" edge="1">
          <mxGeometry relative="1" as="geometry" />
        </mxCell>
        <mxCell id="10" style="edgeStyle=orthogonalEdgeStyle;rounded=0;exitX=1;exitY=0.5;entryX=0;entryY=0.5;" parent="1" source="3" target="4" edge="1">
          <mxGeometry relative="1" as="geometry" />
        </mxCell>
        <mxCell id="11" style="edgeStyle=orthogonalEdgeStyle;exitX=0.5;exitY=1;entryX=0.5;entryY=0;" parent="1" source="2" target="5" edge="1">
          <mxGeometry relative="1" as="geometry" />
        </mxCell>
        <mxCell id="12" style="edgeStyle=orthogonalEdgeStyle;exitX=0.5;exitY=1;entryX=0.5;entryY=0;" parent="1" source="5" target="6" edge="1">
          <mxGeometry relative="1" as="geometry" />
        </mxCell>
        <mxCell id="13" style="edgeStyle=orthogonalEdgeStyle;exitX=0.5;exitY=1;entryX=0.5;entryY=0;" parent="1" source="6" target="7" edge="1">
          <mxGeometry relative="1" as="geometry" />
        </mxCell>
        <mxCell id="14" style="edgeStyle=orthogonalEdgeStyle;exitX=0.5;exitY=1;entryX=0.5;entryY=0;" parent="1" source="6" target="8" edge="1">
          <mxGeometry relative="1" as="geometry" />
        </mxCell>
      </root>
    </mxGraphModel>
  </diagram>
</mxfile>
